<svg width="24" height="25" viewBox="0 0 24 25" fill="none" xmlns="http://www.w3.org/2000/svg">
<path fill-rule="evenodd" clip-rule="evenodd" d="M20.9995 17.6125V20.6125C21.0017 21.1756 20.7665 21.7136 20.3515 22.0943C19.9366 22.4751 19.3803 22.6632 18.8195 22.6125C15.7423 22.2781 12.7865 21.2266 10.1895 19.5425C7.77328 18.0071 5.72479 15.9587 4.18945 13.5425C2.49943 10.9337 1.44769 7.96348 1.11945 4.87248C1.06893 4.31335 1.25572 3.75873 1.63422 3.3441C2.01271 2.92947 2.54805 2.69301 3.10945 2.69248H6.10945C7.11332 2.6826 7.96895 3.41845 8.10945 4.41248C8.23607 5.37255 8.4709 6.31521 8.80945 7.22248C9.08419 7.95336 8.90847 8.77729 8.35945 9.33248L7.08945 10.6025C8.51301 13.106 10.5859 15.1789 13.0895 16.6025L14.3595 15.3325C14.9146 14.7835 15.7386 14.6077 16.4695 14.8825C17.3767 15.221 18.3194 15.4559 19.2795 15.5825C20.285 15.7243 21.0246 16.5973 20.9995 17.6125Z" stroke="#009B7D" stroke-width="2" stroke-linecap="round" stroke-linejoin="round"/>
</svg>
