<svg width="25" height="25" viewBox="0 0 25 25" fill="none" xmlns="http://www.w3.org/2000/svg">
<path fill-rule="evenodd" clip-rule="evenodd" d="M21.4995 17.42V20.42C21.5017 20.9832 21.2665 21.5212 20.8515 21.9019C20.4366 22.2826 19.8803 22.4707 19.3195 22.42C16.2423 22.0856 13.2865 21.0342 10.6895 19.35C8.27328 17.8147 6.22479 15.7662 4.68945 13.35C2.99943 10.7412 1.94769 7.771 1.61945 4.68001C1.56893 4.12088 1.75572 3.56626 2.13422 3.15163C2.51271 2.737 3.04805 2.50054 3.60945 2.50001H6.60945C7.61332 2.49013 8.46895 3.22597 8.60945 4.22001C8.73607 5.18007 8.9709 6.12273 9.30945 7.03001C9.58419 7.76088 9.40847 8.58481 8.85945 9.14001L7.58945 10.41C9.01301 12.9136 11.0859 14.9865 13.5895 16.41L14.8595 15.14C15.4146 14.591 16.2386 14.4153 16.9695 14.69C17.8767 15.0286 18.8194 15.2634 19.7795 15.39C20.785 15.5319 21.5246 16.4048 21.4995 17.42Z" stroke="#DCF8EF" stroke-width="2" stroke-linecap="round" stroke-linejoin="round"/>
</svg>
