<svg width="36" height="37" viewBox="0 0 36 37" fill="none" xmlns="http://www.w3.org/2000/svg">
<path d="M26.4902 34.9908C25.6952 34.9908 24.6752 34.7358 23.4002 33.9858L18.9152 31.3308C18.4502 31.0608 17.5502 31.0608 17.1002 31.3308L12.6002 33.9858C9.94518 35.5608 8.38518 34.9308 7.68018 34.4208C6.99018 33.9108 5.91018 32.6058 6.61518 29.6058L7.68018 25.0008C7.80018 24.5208 7.56018 23.6958 7.20018 23.3358L3.48018 19.6158C1.62018 17.7558 1.77018 16.1658 2.02518 15.3858C2.28018 14.6058 3.09018 13.2258 5.67018 12.7908L10.4552 11.9958C10.9052 11.9208 11.5502 11.4408 11.7452 11.0358L14.4002 5.74082C15.6002 3.32582 17.1752 2.96582 18.0002 2.96582C18.8252 2.96582 20.4002 3.32582 21.6002 5.74082L24.2402 11.0208C24.4502 11.4258 25.0952 11.9058 25.5452 11.9808L30.3302 12.7758C32.9252 13.2108 33.7352 14.5908 33.9752 15.3708C34.2152 16.1508 34.3652 17.7408 32.5202 19.6008L28.8002 23.3358C28.4402 23.6958 28.2152 24.5058 28.3202 25.0008L29.3852 29.6058C30.0752 32.6058 29.0102 33.9108 28.3202 34.4208C27.9452 34.6908 27.3452 34.9908 26.4902 34.9908Z" fill="white"/>
<path d="M26.4902 34.9908C25.6952 34.9908 24.6752 34.7358 23.4002 33.9858L18.9152 31.3308C18.4502 31.0608 17.5502 31.0608 17.1002 31.3308L12.6002 33.9858C9.94518 35.5608 8.38518 34.9308 7.68018 34.4208C6.99018 33.9108 5.91018 32.6058 6.61518 29.6058L7.68018 25.0008C7.80018 24.5208 7.56018 23.6958 7.20018 23.3358L3.48018 19.6158C1.62018 17.7558 1.77018 16.1658 2.02518 15.3858C2.28018 14.6058 3.09018 13.2258 5.67018 12.7908L10.4552 11.9958C10.9052 11.9208 11.5502 11.4408 11.7452 11.0358L14.4002 5.74082C15.6002 3.32582 17.1752 2.96582 18.0002 2.96582C18.8252 2.96582 20.4002 3.32582 21.6002 5.74082L24.2402 11.0208C24.4502 11.4258 25.0952 11.9058 25.5452 11.9808L30.3302 12.7758C32.9252 13.2108 33.7352 14.5908 33.9752 15.3708C34.2152 16.1508 34.3652 17.7408 32.5202 19.6008L28.8002 23.3358C28.4402 23.6958 28.2152 24.5058 28.3202 25.0008L29.3852 29.6058C30.0752 32.6058 29.0102 33.9108 28.3202 34.4208C27.9452 34.6908 27.3452 34.9908 26.4902 34.9908Z" fill="#218354"/>
</svg>
